<svg 
 xmlns="http://www.w3.org/2000/svg"
 xmlns:xlink="http://www.w3.org/1999/xlink"
 width="85px" height="80px">
<path fill-rule="evenodd"  fill="rgb(255, 255, 255)"
 d="M-0.000,80.000 L-0.000,35.000 L5.000,35.000 L5.000,75.000 L80.000,75.000 L80.000,35.000 L85.000,35.000 L85.000,80.000 L-0.000,80.000 ZM10.000,65.000 L75.000,65.000 L75.000,70.000 L10.000,70.000 L10.000,65.000 ZM10.000,55.000 L75.000,55.000 L75.000,60.000 L10.000,60.000 L10.000,55.000 ZM10.000,45.000 L75.000,45.000 L75.000,50.000 L10.000,50.000 L10.000,45.000 ZM43.000,40.000 L42.000,40.000 L40.000,40.000 L20.000,15.000 L27.000,15.000 L40.000,31.250 L40.000,0.000 L45.000,0.000 L45.000,31.250 L58.000,15.000 L65.000,15.000 L45.000,40.000 L43.000,40.000 Z"/>
</svg>
