<svg 
 xmlns="http://www.w3.org/2000/svg"
 xmlns:xlink="http://www.w3.org/1999/xlink"
 width="85px" height="80px">
<path fill-rule="evenodd"  fill="rgb(255, 255, 255)"
 d="M45.000,80.000 L45.000,42.000 L85.000,42.000 L85.000,80.000 L45.000,80.000 ZM80.000,47.000 L50.000,47.000 L50.000,75.000 L80.000,75.000 L80.000,47.000 ZM-0.000,42.000 L40.000,42.000 L40.000,80.000 L-0.000,80.000 L-0.000,42.000 ZM5.000,75.000 L35.000,75.000 L35.000,47.000 L5.000,47.000 L5.000,75.000 ZM-0.000,0.000 L40.000,0.000 L40.000,37.000 L-0.000,37.000 L-0.000,0.000 ZM5.000,32.000 L35.000,32.000 L35.000,5.000 L5.000,5.000 L5.000,32.000 Z"/>
</svg>
