<svg 
 xmlns="http://www.w3.org/2000/svg"
 xmlns:xlink="http://www.w3.org/1999/xlink"
 width="85px" height="80px">
<path fill-rule="evenodd"  fill="rgb(255, 255, 255)"
 d="M35.000,80.000 L35.000,15.000 L85.000,15.000 L85.000,80.000 L35.000,80.000 ZM80.000,20.000 L40.000,20.000 L40.000,75.000 L80.000,75.000 L80.000,20.000 ZM50.000,35.000 L45.000,35.000 L45.000,30.000 L50.000,30.000 L50.000,35.000 ZM50.000,50.000 L45.000,50.000 L45.000,45.000 L50.000,45.000 L50.000,50.000 ZM50.000,65.000 L45.000,65.000 L45.000,60.000 L50.000,60.000 L50.000,65.000 ZM75.000,35.000 L55.000,35.000 L55.000,30.000 L75.000,30.000 L75.000,35.000 ZM75.000,50.000 L55.000,50.000 L55.000,45.000 L75.000,45.000 L75.000,50.000 ZM75.000,65.000 L55.000,65.000 L55.000,60.000 L75.000,60.000 L75.000,65.000 ZM15.000,50.000 L10.000,50.000 L10.000,45.000 L15.000,45.000 L15.000,50.000 ZM10.000,15.000 L15.000,15.000 L15.000,20.000 L10.000,20.000 L10.000,15.000 ZM15.000,35.000 L10.000,35.000 L10.000,30.000 L15.000,30.000 L15.000,35.000 ZM30.000,50.000 L20.000,50.000 L20.000,45.000 L30.000,45.000 L30.000,50.000 ZM20.000,15.000 L30.000,15.000 L30.000,20.000 L20.000,20.000 L20.000,15.000 ZM30.000,35.000 L20.000,35.000 L20.000,30.000 L30.000,30.000 L30.000,35.000 ZM45.000,5.000 L5.000,5.000 L5.000,60.000 L30.000,60.000 L30.000,65.000 L-0.000,65.000 L-0.000,0.000 L50.000,0.000 L50.000,10.000 L45.000,10.000 L45.000,5.000 Z"/>
</svg>
